<svg xmlns="http://www.w3.org/2000/svg" xmlns:xlink="http://www.w3.org/1999/xlink" width="500" zoomAndPan="magnify" viewBox="0 0 375 374.999991" height="500" preserveAspectRatio="xMidYMid meet" version="1.0"><defs><g/><clipPath id="98868afa9a"><path d="M 49.734375 107.589844 L 134.484375 107.589844 L 134.484375 228.339844 L 49.734375 228.339844 Z M 49.734375 107.589844 " clip-rule="nonzero"/></clipPath></defs><g fill="#231f20" fill-opacity="1"><g transform="translate(134.289516, 172.302161)"><g><path d="M 2.03125 -19.34375 L 4.96875 -19.34375 L 4.96875 -11.453125 L 11.796875 -11.453125 L 11.796875 -19.34375 L 14.75 -19.34375 L 14.75 0 L 11.796875 0 L 11.796875 -8.984375 L 4.96875 -8.984375 L 4.96875 0 L 2.03125 0 Z M 2.03125 -19.34375 "/></g></g></g><g fill="#231f20" fill-opacity="1"><g transform="translate(155.952101, 172.302161)"><g><path d="M 10.953125 0.265625 C 9.191406 0.265625 7.570312 -0.140625 6.09375 -0.953125 C 4.613281 -1.773438 3.429688 -2.941406 2.546875 -4.453125 C 1.671875 -5.960938 1.234375 -7.71875 1.234375 -9.71875 C 1.234375 -11.738281 1.671875 -13.5 2.546875 -15 C 3.429688 -16.5 4.613281 -17.648438 6.09375 -18.453125 C 7.570312 -19.265625 9.191406 -19.671875 10.953125 -19.671875 C 12.703125 -19.671875 14.316406 -19.265625 15.796875 -18.453125 C 17.285156 -17.648438 18.46875 -16.5 19.34375 -15 C 20.226562 -13.5 20.671875 -11.738281 20.671875 -9.71875 C 20.671875 -7.71875 20.226562 -5.960938 19.34375 -4.453125 C 18.46875 -2.941406 17.285156 -1.773438 15.796875 -0.953125 C 14.316406 -0.140625 12.703125 0.265625 10.953125 0.265625 Z M 10.953125 -2.390625 C 12.160156 -2.390625 13.265625 -2.675781 14.265625 -3.25 C 15.265625 -3.820312 16.054688 -4.65625 16.640625 -5.75 C 17.234375 -6.84375 17.53125 -8.15625 17.53125 -9.6875 C 17.53125 -11.226562 17.234375 -12.546875 16.640625 -13.640625 C 16.054688 -14.742188 15.269531 -15.578125 14.28125 -16.140625 C 13.289062 -16.703125 12.179688 -16.984375 10.953125 -16.984375 C 9.722656 -16.984375 8.609375 -16.703125 7.609375 -16.140625 C 6.609375 -15.578125 5.816406 -14.742188 5.234375 -13.640625 C 4.660156 -12.546875 4.375 -11.226562 4.375 -9.6875 C 4.375 -8.15625 4.671875 -6.84375 5.265625 -5.75 C 5.859375 -4.65625 6.660156 -3.820312 7.671875 -3.25 C 8.679688 -2.675781 9.773438 -2.390625 10.953125 -2.390625 Z M 10.953125 -2.390625 "/></g></g></g><g fill="#231f20" fill-opacity="1"><g transform="translate(182.747159, 172.302161)"><g><path d="M 5.734375 -16.765625 L 0.796875 -16.765625 L 0.796875 -19.34375 L 13.671875 -19.34375 L 13.671875 -16.765625 L 8.65625 -16.765625 L 8.65625 0 L 5.734375 0 Z M 5.734375 -16.765625 "/></g></g></g><g fill="#231f20" fill-opacity="1"><g transform="translate(202.093561, 172.302161)"><g><path d="M 2.03125 -19.34375 L 10.5 -19.34375 L 10.5 -16.765625 L 4.953125 -16.765625 L 4.953125 -11.421875 L 9.421875 -11.421875 L 9.421875 -8.796875 L 4.953125 -8.796875 L 4.953125 -2.609375 L 11.375 -2.609375 L 11.375 0 L 2.03125 0 Z M 2.03125 -19.34375 "/></g></g></g><g fill="#231f20" fill-opacity="1"><g transform="translate(219.281687, 172.302161)"><g><path d="M 2.046875 -19.34375 L 5.03125 -19.34375 L 5.03125 -2.625 L 10.578125 -2.625 L 10.578125 0 L 2.046875 0 Z M 2.046875 -19.34375 "/></g></g></g><g fill="#231f20" fill-opacity="1"><g transform="translate(134.289516, 188.021047)"><g><path d="M 1.0625 -8.5625 L 2.359375 -8.5625 L 2.359375 0 L 1.0625 0 Z M 1.0625 -8.5625 "/></g></g></g><g fill="#231f20" fill-opacity="1"><g transform="translate(147.040992, 188.021047)"><g><path d="M 3.109375 -4 L 2.578125 -5.203125 L 2.328125 -4 L 1.53125 0 L 0.25 0 L 2.015625 -8.5625 L 2.15625 -8.5625 L 4.515625 -3.9375 L 5.203125 -2.390625 L 5.90625 -3.9375 L 8.21875 -8.5625 L 8.34375 -8.5625 L 10.1875 0 L 8.90625 0 L 8.046875 -4 L 7.78125 -5.203125 L 7.3125 -4 L 5.25 0 L 5.171875 0 Z M 3.109375 -4 "/></g></g></g><g fill="#231f20" fill-opacity="1"><g transform="translate(166.793195, 188.021047)"><g><path d="M 0.90625 -8.5625 L 2.796875 -8.5625 C 3.859375 -8.5625 4.632812 -8.332031 5.125 -7.875 C 5.625 -7.425781 5.875 -6.804688 5.875 -6.015625 C 5.875 -5.097656 5.601562 -4.394531 5.0625 -3.90625 C 4.53125 -3.414062 3.738281 -3.171875 2.6875 -3.171875 L 2.21875 -3.171875 L 2.21875 0 L 0.90625 0 Z M 2.71875 -4.328125 C 3.394531 -4.328125 3.867188 -4.476562 4.140625 -4.78125 C 4.421875 -5.082031 4.5625 -5.445312 4.5625 -5.875 C 4.5625 -6.332031 4.425781 -6.703125 4.15625 -6.984375 C 3.894531 -7.273438 3.453125 -7.421875 2.828125 -7.421875 L 2.21875 -7.421875 L 2.21875 -4.328125 Z M 2.71875 -4.328125 "/></g></g></g><g fill="#231f20" fill-opacity="1"><g transform="translate(182.293701, 188.021047)"><g><path d="M 0.890625 -8.5625 L 4.65625 -8.5625 L 4.65625 -7.421875 L 2.1875 -7.421875 L 2.1875 -5.0625 L 4.171875 -5.0625 L 4.171875 -3.890625 L 2.1875 -3.890625 L 2.1875 -1.15625 L 5.03125 -1.15625 L 5.03125 0 L 0.890625 0 Z M 0.890625 -8.5625 "/></g></g></g><g fill="#231f20" fill-opacity="1"><g transform="translate(197.060355, 188.021047)"><g><path d="M 5.1875 0 L 3.46875 -3.234375 C 3.101562 -3.222656 2.78125 -3.21875 2.5 -3.21875 L 2.1875 -3.21875 L 2.1875 0 L 0.90625 0 L 0.90625 -8.5625 L 2.859375 -8.5625 C 3.847656 -8.5625 4.660156 -8.359375 5.296875 -7.953125 C 5.929688 -7.546875 6.25 -6.882812 6.25 -5.96875 C 6.25 -5.394531 6.113281 -4.898438 5.84375 -4.484375 C 5.570312 -4.066406 5.175781 -3.742188 4.65625 -3.515625 L 6.6875 0 Z M 3 -4.28125 C 3.769531 -4.28125 4.296875 -4.441406 4.578125 -4.765625 C 4.859375 -5.097656 5 -5.492188 5 -5.953125 C 5 -6.972656 4.316406 -7.484375 2.953125 -7.484375 L 2.1875 -7.484375 L 2.1875 -4.28125 Z M 3 -4.28125 "/></g></g></g><g fill="#231f20" fill-opacity="1"><g transform="translate(213.492742, 188.021047)"><g><path d="M 1.0625 -8.5625 L 2.359375 -8.5625 L 2.359375 0 L 1.0625 0 Z M 1.0625 -8.5625 "/></g></g></g><g fill="#231f20" fill-opacity="1"><g transform="translate(226.244217, 188.021047)"><g><path d="M 4.046875 -8.578125 L 8.171875 0 L 6.671875 0 L 5.9375 -1.671875 L 2 -1.671875 L 1.265625 0 L -0.1875 0 L 3.921875 -8.578125 Z M 3.46875 -4.9375 L 2.53125 -2.859375 L 5.421875 -2.859375 L 4.5 -4.921875 L 4 -6.09375 L 3.96875 -6.09375 Z M 3.46875 -4.9375 "/></g></g></g><g fill="#231f20" fill-opacity="1"><g transform="translate(243.550247, 188.021047)"><g><path d="M 0.90625 -8.5625 L 2.21875 -8.5625 L 2.21875 -1.171875 L 4.6875 -1.171875 L 4.6875 0 L 0.90625 0 Z M 0.90625 -8.5625 "/></g></g></g><g clip-path="url(#98868afa9a)"><path fill="#231f20" d="M 99.75 196.027344 L 84.285156 196.027344 L 84.285156 226.46875 L 54.609375 226.46875 L 54.609375 228.683594 L 129.421875 228.683594 L 129.421875 226.46875 L 99.75 226.46875 Z M 86.496094 198.242188 L 97.535156 198.242188 L 97.535156 226.46875 L 86.496094 226.46875 Z M 88.539062 200.203125 L 88.539062 214.898438 L 95.492188 214.898438 L 95.492188 200.203125 Z M 93.277344 212.6875 L 90.753906 212.6875 L 90.753906 202.414062 L 93.277344 202.414062 Z M 102.324219 154.371094 L 102.324219 156.582031 L 114.070312 156.582031 L 114.070312 154.371094 L 112.316406 154.371094 L 112.316406 132.566406 L 114.070312 132.566406 L 114.070312 130.351562 L 102.320312 130.351562 L 102.320312 132.566406 L 104.074219 132.566406 L 104.074219 154.371094 Z M 110.105469 132.566406 L 110.105469 136.835938 L 106.289062 136.835938 L 106.289062 132.566406 Z M 106.289062 139.054688 L 110.105469 139.054688 L 110.105469 154.371094 L 106.289062 154.371094 Z M 86.144531 154.371094 L 86.144531 156.582031 L 97.890625 156.582031 L 97.890625 154.371094 L 96.136719 154.371094 L 96.136719 132.566406 L 97.890625 132.566406 L 97.890625 130.351562 L 86.144531 130.351562 L 86.144531 132.566406 L 87.894531 132.566406 L 87.894531 154.371094 Z M 93.925781 132.566406 L 93.925781 136.835938 L 90.109375 136.835938 L 90.109375 132.566406 Z M 90.109375 139.054688 L 93.925781 139.054688 L 93.925781 154.371094 L 90.109375 154.371094 Z M 69.964844 154.371094 L 69.964844 156.582031 L 81.707031 156.582031 L 81.707031 154.371094 L 79.957031 154.371094 L 79.957031 132.566406 L 81.707031 132.566406 L 81.707031 130.351562 L 69.960938 130.351562 L 69.960938 132.566406 L 71.710938 132.566406 L 71.710938 154.371094 Z M 77.746094 132.566406 L 77.746094 136.835938 L 73.925781 136.835938 L 73.925781 132.566406 Z M 73.925781 139.054688 L 77.742188 139.054688 L 77.742188 154.371094 L 73.925781 154.371094 Z M 94.234375 162.695312 L 94.234375 164.910156 L 95.984375 164.910156 L 95.984375 186.714844 L 94.234375 186.714844 L 94.234375 188.925781 L 105.980469 188.925781 L 105.980469 186.714844 L 104.230469 186.714844 L 104.230469 164.910156 L 105.980469 164.910156 L 105.980469 162.695312 Z M 98.199219 186.710938 L 98.199219 171.5625 L 102.015625 171.5625 L 102.015625 186.710938 Z M 102.015625 164.910156 L 102.015625 169.351562 L 98.199219 169.351562 L 98.199219 164.910156 Z M 78.050781 162.695312 L 78.050781 164.910156 L 79.804688 164.910156 L 79.804688 186.714844 L 78.054688 186.714844 L 78.054688 188.925781 L 89.796875 188.925781 L 89.796875 186.714844 L 88.046875 186.714844 L 88.046875 164.910156 L 89.796875 164.910156 L 89.796875 162.695312 Z M 82.015625 186.710938 L 82.015625 171.5625 L 85.832031 171.5625 L 85.832031 186.710938 Z M 85.832031 164.910156 L 85.832031 169.351562 L 82.015625 169.351562 L 82.015625 164.910156 Z M 104.394531 205.277344 L 104.394531 214.898438 L 117.15625 214.898438 L 117.15625 196.027344 L 104.394531 196.027344 Z M 114.941406 212.6875 L 106.609375 212.6875 L 106.609375 205.277344 L 114.941406 205.277344 Z M 106.609375 198.242188 L 114.941406 198.242188 L 114.941406 203.0625 L 106.609375 203.0625 Z M 67.042969 205.277344 L 67.042969 214.898438 L 79.804688 214.898438 L 79.804688 196.027344 L 67.042969 196.027344 Z M 77.59375 212.6875 L 69.257812 212.6875 L 69.257812 205.277344 L 77.589844 205.277344 L 77.589844 212.6875 Z M 69.257812 198.242188 L 77.589844 198.242188 L 77.589844 203.0625 L 69.257812 203.0625 Z M 97.34375 124.410156 C 97.34375 121.472656 94.953125 119.082031 92.015625 119.082031 C 89.078125 119.082031 86.691406 121.472656 86.691406 124.410156 L 86.691406 125.519531 L 97.347656 125.519531 L 97.347656 124.410156 Z M 89.101562 123.304688 C 89.546875 122.132812 90.6875 121.296875 92.015625 121.296875 C 93.34375 121.296875 94.480469 122.132812 94.925781 123.304688 Z M 123.433594 221.597656 L 123.433594 115.003906 L 126.847656 115.003906 L 126.847656 112.792969 L 123.433594 112.792969 L 123.433594 109.804688 L 129.425781 109.804688 L 129.425781 107.589844 L 54.609375 107.589844 L 54.609375 109.804688 L 60.601562 109.804688 L 60.601562 112.792969 L 57.1875 112.792969 L 57.1875 115.003906 L 60.601562 115.003906 L 60.601562 221.597656 L 49.859375 221.597656 L 49.859375 223.808594 L 78.527344 223.808594 L 78.527344 221.597656 L 62.8125 221.597656 L 62.8125 115.003906 L 121.21875 115.003906 L 121.21875 221.597656 L 105.5 221.597656 L 105.5 223.808594 L 134.167969 223.808594 L 134.167969 221.597656 Z M 62.8125 112.792969 L 62.8125 109.804688 L 121.21875 109.804688 L 121.21875 112.792969 Z M 62.8125 112.792969 " fill-opacity="1" fill-rule="nonzero"/></g></svg>